<?xml version="1.0" encoding="UTF-8"?>
<svg width="80px" height="80px" viewBox="0 0 80 80" version="1.1" xmlns="http://www.w3.org/2000/svg" xmlns:xlink="http://www.w3.org/1999/xlink">
    <!-- Generator: Sketch 59 (86127) - https://sketch.com -->
    <title>logo</title>
    <desc>Created with Sketch.</desc>
    <g id="logo" stroke="none" stroke-width="1" fill="none" fill-rule="evenodd">
        <circle id="Oval" fill="#000000" cx="40" cy="40" r="40"></circle>
        <path d="M45.952381,44.5862923 L55.5185185,44.5862923 C55.5185185,48.8538611 54.3756728,52.2931331 52.0899471,54.9042114 C49.1269693,58.3014208 45.3315928,60 40.7037037,60 C36.6401913,60 33.2398726,58.5962155 30.5026455,55.7886045 C27.7371996,52.9529173 26.3544974,49.4855696 26.3544974,45.3864575 C26.3544974,42.1296286 27.2151589,39.5185895 28.9365079,37.5532618 C30.5402784,35.7259749 33.163613,34.1110356 36.8065801,32.7084035 L37.8253968,32.3311313 C41.9735657,30.8150213 44.5978781,29.5937288 45.6984127,28.6672172 C46.8271661,27.7407055 47.3915344,26.3088454 47.3915344,24.3715937 C47.3915344,22.4343421 46.8060023,20.8971981 45.6349206,19.7601156 C44.4638389,18.6230331 42.9047716,18.0545004 40.957672,18.0545004 C39.0105723,18.0545004 37.4585596,18.6160142 36.3015873,19.7390586 C35.144615,20.8621031 34.5661376,22.3922281 34.5661376,24.3294798 C34.5661376,25.1998392 34.735448,26.4070938 35.0740741,27.9512799 L25.2116402,27.9512799 L25.0634921,26.014038 C25.0211638,25.4525158 25,24.9471534 25,24.4979356 C25,20.0619101 26.5096851,16.3699569 29.5291005,13.4219653 C32.5202971,10.4739737 36.3015644,9 40.8730159,9 C45.4726861,9 49.3103903,10.4880115 52.3862434,13.4640793 C55.4620965,16.440147 57,20.1601759 57,24.6242775 C57,29.2006835 55.4620965,32.8926367 52.3862434,35.7002477 C50.5689503,37.351123 47.252219,38.9530611 42.4359599,40.5061038 L41.3809524,40.8381503 C37.7125037,41.9611947 35.8783069,43.7299632 35.8783069,46.1445087 C35.8783069,46.8183353 36.0123443,47.4570573 36.2804233,48.0606936 C36.5485022,48.66433 36.908287,49.1907492 37.3597884,49.639967 C37.8112897,50.0891847 38.340385,50.4401309 38.9470899,50.6928159 C39.5537949,50.9455009 40.1957638,51.0718415 40.8730159,51.0718415 C43.9770878,51.0718415 45.6701926,48.9100134 45.952381,44.5862923 Z M35,69.9568345 C35,68.3453157 35.5899222,66.9496462 36.7697842,65.7697842 C37.9496462,64.5899222 39.359704,64 41,64 C42.640296,64 44.0503538,64.5899222 45.2302158,65.7697842 C46.4100778,66.9496462 47,68.359704 47,70 C47,71.6690731 46.4100778,73.0935193 45.2302158,74.2733813 C44.0791309,75.4244662 42.6834614,76 41.0431655,76 C39.3453153,76 37.9208691,75.4244662 36.7697842,74.2733813 C35.5899222,73.0935193 35,71.6546847 35,69.9568345 Z" id="?" fill="#FFFFFF" fill-rule="nonzero"></path>
    </g>
</svg>